<?xml version="1.0" encoding="UTF-8" standalone="no"?>
<svg
   width="256"
   height="256"
   viewBox="0 0 212.00002 212.00002"
   fill="none"
   version="1.1"
   id="svg1"
   xmlns="http://www.w3.org/2000/svg"
   xmlns:svg="http://www.w3.org/2000/svg">
  <defs
     id="defs1" />
  <rect
     width="212"
     height="212"
     fill="#0066ff"
     id="rect1"
     x="0"
     y="0" />
  <path
     fill-rule="evenodd"
     clip-rule="evenodd"
     d="m 65.222504,51.081169 c -2.4066,-0.1924 -4.1856,-2.284 -3.9941,-4.656 0.1918,-2.373 2.2859,-4.1569 4.6937,-3.9646 l 30.0826,2.4036 c 2.406596,0.1924 4.185696,2.284 3.993896,4.656 -0.1916,2.373 -2.2857,4.157 -4.693396,3.9646 z m 61.707796,0.5936 c 0.191,-2.3729 2.286,-4.157 4.693,-3.9646 l 30.083,2.4036 c 2.406,0.1923 4.186,2.2841 3.994,4.6559 -0.192,2.373 -2.286,4.157 -4.694,3.9646 l -30.082,-2.4036 c -2.407,-0.1922 -4.186,-2.284 -3.994,-4.6559 z m -43.291896,7.0595 c 0.4448,3.0351 1.3679,5.9166 2.692,8.5668 6.7073,-4.084 14.595996,-5.9891 22.541896,-5.3561 9.449,0.7526 18.239,5.0354 24.601,11.9524 2.741,-2.9846 4.855,-6.5444 6.138,-10.4721 0.74,-2.2675 3.196,-3.5207 5.494,-2.7791 2.292,0.7402 3.536,3.1812 2.797,5.4449 -1.868,5.7213 -5.085,10.832 -9.274,14.9645 2.871,5.2019 4.447,11.0314 4.566,16.995301 0.04,2.0405 -1.779,3.5596 -3.834,3.396 l -7.44,-0.5927 c -2.054,-0.1636 -3.553,-1.9543 -3.731,-3.987501 -0.399,-4.5624 -2.22,-8.924 -5.257,-12.4573 -3.849,-4.4782 -9.337,-7.2589 -15.257,-7.7305 -5.9197,-0.4715 -11.786296,1.4048 -16.308896,5.216 -3.5686,3.0071 -6.0697,7.0245 -7.2002,11.4649 -0.5039,1.979 -2.2727,3.5093 -4.3274,3.3457 l -7.4401,-0.5927 c -2.0547,-0.1637 -3.6051,-1.9511 -3.2356,-3.959 1.3494,-7.3322 4.9098,-14.0971 10.2165,-19.3951 -2.185,-3.8831 -3.6941,-8.1959 -4.3659,-12.7798 -0.3451,-2.3545 1.2945,-4.5551 3.6827,-4.9011 2.3905,-0.3464 4.5966,1.3001 4.942,3.6565 z M 106,110.71747 c 6.1833,0 11.1963,-4.964 11.1963,-11.0866 0,-6.122801 -5.013,-11.086201 -11.1963,-11.086201 -6.1836,0 -11.196396,4.9634 -11.196396,11.086201 0,6.1226 5.012796,11.0866 11.196396,11.0866 z m 28.2083,-0.202 c 3.523,1.715 5.285,3.607 5.285,5.676 0,0.946 -0.448,2.365 -1.344,4.257 l -24.722,49.666 c -0.657,1.301 -1.672,2.365 -3.045,3.193 -1.314,0.769 -2.687,1.153 -4.1203,1.153 h -0.8957 c -1.493,0 -2.9262,-0.384 -4.2996,-1.153 -1.3137,-0.828 -2.2989,-1.892 -2.9558,-3.193 l -24.721796,-49.666 c -0.8957,-1.892 -1.3435,-3.311 -1.3435,-4.257 0,-2.069 1.7615,-3.961 5.2847,-5.676 1.9707,-1.005 3.4634,-1.508 4.4787,-1.508 1.0747,0 1.8808,0.119 2.4184,0.355 0.5374,0.237 1.0449,0.651 1.5226,1.242 0.5376,0.709 1.0153,1.508 1.4333,2.394 0.4776,0.828 1.6421,3.282 3.4931,7.362 0.8073,1.753 1.6372,3.557 2.4898,5.411 0.6274,1.365 1.267,2.756 1.9189,4.175 l 1.503,3.274 c 2.149896,4.552 4.150096,8.869 6.001396,12.948 1.9107,4.021 2.9857,6.268 3.2246,6.741 l 17.9142,-38.846 c 0.478,-1.124 0.896,-2.011 1.254,-2.661 1.075,-1.596 2.389,-2.395 3.941,-2.395 1.553,0 3.314,0.503 5.285,1.508 z"
     fill="#e5f0ff"
     id="path1" />
</svg>
